<svg viewBox="0 0 390 140" class="css-8aabad">
  <path fill="#fff" d="M0 0h390v140H0z"/>
  <path xmlns="http://www.w3.org/2000/svg" fill-rule="evenodd" clip-rule="evenodd" d="M242.404 30.86c.486.912.796 1.998.93 3.256.061.553.092 1.545.092 2.975a8.395 8.395 0 0 1-.113 1.223c-.023.57-.11 1.386-.26 2.449a43.171 43.171 0 0 0-.214 1.661c.03.411.09.716.18.91.098.217.461.681 1.09 1.393.33.351.924.613 1.785.785 1.017.195 1.61.337 1.775.427.538.279.995.689 1.369 1.236.21.554.35 1.026.428 1.414.006.024.047.341.123.955.12.71.272 1.366.459 1.965.097.306.208.591.327.853a1.099 1.099 0 0 1-.282.033c-1.682 0-2.99-.692-3.92-2.079-.209-.32-.49-.844-.841-1.57l-.214-.415a.186.186 0 0 1-.01-.045c-.024-.413-.458-.988-1.304-1.73-1.01-.883-1.557-1.391-1.64-1.526a5.255 5.255 0 0 1-.752-1.673 6.076 6.076 0 0 1-.112-.818v-.102l-.021-.314a4.318 4.318 0 0 1-.014-.327c0-.448.06-1.133.18-2.056.045-.366.082-.692.113-.976.081-.568.146-1.163.189-1.784a12.744 12.744 0 0 0-.572-2.92c-.755-2.366-2.04-3.549-3.853-3.549-.335 0-.658.068-.963.203.202 1.833.303 2.844.303 3.032 0 .762-.219 1.941-.652 3.536-.434 1.58-.65 2.76-.65 3.537 0 1.437.576 2.89 1.729 4.357.695.869 1.098 1.388 1.201 1.562.36.553.54 1.085.54 1.595 0 .507-.62 2.098-1.863 4.771a180.847 180.847 0 0 1-2.045 4.244 8.054 8.054 0 0 0-.742 3.19 35.925 35.925 0 0 0 .023 2.47c-.029.764-.27 1.3-.718 1.607-.54.375-1.53.561-2.975.561-.935 0-1.86-.076-2.774-.224-1.16-.197-1.74-.45-1.74-.764 0-.695.344-1.715 1.033-3.056.396-.763 1.153-2.069 2.269-3.918a79.234 79.234 0 0 0 2.47-4.414c.008-.089.024-.18.045-.27a3.18 3.18 0 0 0 .022-.37c0-.553-.262-1.055-.785-1.505-.3-.255-.895-.625-1.785-1.111a19.144 19.144 0 0 1-.977-.55 5.362 5.362 0 0 1-.484 1.046c-.396.643-1.058 1.384-1.987 2.222-1.115.952-1.953 1.704-2.515 2.258-.989.965-1.764 1.946-2.325 2.942a20.433 20.433 0 0 0-1.853 4.254 55.067 55.067 0 0 0-.707 2.628c-.238.66-.626 1.105-1.157 1.337-.591.24-1.65.358-3.177.358h-2.213c-1.094-.044-1.64-.208-1.64-.492 0-.815.53-1.983 1.583-3.504.726-1.04 1.888-2.478 3.482-4.312a269.794 269.794 0 0 0 2.875-3.323l.146-.17c.208-.246.361-.436.459-.571.218-.27.411-.525.584-.764-.314-2.463-1.56-4.062-3.738-4.795-1.213-.405-3.209-.606-5.985-.606-.599 0-1.813.213-3.638.64-1.716.434-2.595.614-2.641.54-.868.299-1.528.52-1.986.662-1.219.389-2.119.585-2.695.585a8.11 8.11 0 0 1-2.236-.347c-.8-.233-1.4-.35-1.796-.35-.119 0-.283.065-.49.192-2.092 3.252-3.93 5.96-5.512 8.13.127.337.288.623.488.852.397.457.993.731 1.787.82.433.046 1.028.085 1.785.123.546.121.818.46.818 1.023 0 .493-.2 1.692-.606 3.593-.433 2.021-.752 3.031-.953 3.031-.808 0-2.1-1.073-3.874-3.222-.926-1.114-1.637-2.033-2.133-2.762a25.312 25.312 0 0 1-1.348 1.477l-.236.69c-.389 1.13-.779 1.883-1.168 2.257-1.347.18-2.335.31-2.964.392-1.123.142-2.07.214-2.842.214-.748 0-1.122-.216-1.122-.65 0-.18.94-1.523 2.819-4.032 1.871-2.507 2.806-3.807 2.806-3.896 0-.202-.15-.456-.449-.763-.03-.03-.356-.326-.977-.887-.95-.862-1.426-1.625-1.426-2.29 0-.494.243-1.015.73-1.562.269-.292.804-.768 1.606-1.427.764-.605 1.302-1.1 1.617-1.481.486-.576.73-1.153.73-1.729 0-.545-1.824-1.673-5.47-3.38-3.571-1.676-5.824-2.515-6.76-2.515-.554 0-1.015.263-1.381.787a2.844 2.844 0 0 0-.517 1.684c0 .284.086.8.258 1.549.172.764.258 1.317.258 1.663 0 .794-.465 1.586-1.393 2.38-.936.809-1.917 1.212-2.942 1.212-.366 0-.965-.479-1.796-1.435-.464-.48-1.086-1.129-1.864-1.944-1.991-2.08-3.257-3.313-3.795-3.693a13.275 13.275 0 0 1-3.201-3.347c-.606-.906-1.006-1.714-1.201-2.426-.577.254-1.15.48-1.719.674-1.752.606-3.334.909-4.75.909-1.37 0-2.763-.703-4.177-2.111-1.25-1.235-2.01-2.41-2.28-3.525.748.562 1.673 1.108 2.774 1.64 1.446.695 2.612 1.044 3.504 1.044.884 0 2.118-.476 3.706-1.426a31.301 31.301 0 0 0 2.402-1.606v-.079c-2.283.24-4.581-.362-6.895-1.807-2.306-1.445-3.79-3.211-4.458-5.3 1.916 1.512 3.29 2.489 4.121 2.93 1.243.644 2.627.966 4.156.966.884 0 2.077-.116 3.581-.348.943-.142 4.918-2.115 11.925-5.917a287.199 287.199 0 0 1 2.257-1.235l.034-.033a110.514 110.514 0 0 1 2.672-2.538c3.729-3.399 6.57-5.097 8.522-5.097 1.183 0 2.467.313 3.852.943.83.381 2.16 1.077 3.986 2.087 1.798.936 3.522 1.632 5.176 2.09 2.277.636 4.764.953 7.468.953 1.496 0 4.412-.333 8.747-1 4.349-.666 7.052-1 8.108-1 4.048 0 7.847.921 11.397 2.763 2.41 1.236 4.394 2.715 5.952 4.436 4.271.555 7.076 2.085 8.417 4.586z" fill="#111"/>
  <path d="M20 87.756h7.35v26.424c0 6.593 1.566 9.403 4.7 9.403 2.432 0 5.998-.919 5.998-9.565V87.756h1.081v25.884c0 8.754-3.512 11.402-8.43 11.402-7.619 0-10.699-3.837-10.699-12.483V87.756zm43.068 0h1.08v36.583h-7.565L46.154 94.132v30.207h-1.08v-32.8l-1.298-3.783h7.512l11.78 33.449V87.756zm27.45 32.963c-2.323 2.918-4.755 4.323-8.7 4.323-8.43 0-12.806-6.377-12.806-18.643 0-16.157 7.619-19.345 13.347-19.345 2.756 0 5.025.756 6.809 2.27l-.54.594c-1.406-1.135-3.46-1.892-5.296-1.892-3.567 0-6.215 2.54-6.215 18.751 0 13.131 1.73 16.968 6.215 16.968 2.864 0 5.133-1.621 6.538-3.459zm20.913 2.648v.972H93.653V87.756h7.349v35.61h10.429zm21.56 0v.972h-18.21V87.756h17.238v.973h-9.889v16.535h7.836v.973h-7.836v17.13h10.862zm10.754-35.611h22.75v.973h-7.727v35.61h-7.35V88.73h-7.673v-.973zm37.61-.757c8.106 0 12.429 6.485 12.429 18.968 0 12.536-4.377 19.075-12.591 19.075-8.268 0-12.59-6.485-12.59-18.967 0-12.537 4.376-19.076 12.752-19.076zm-.216.973c-3.026 0-4.54 6.16-4.54 17.94 0 11.943 1.514 18.157 4.594 18.157 2.972 0 4.593-6.16 4.593-17.94 0-11.943-1.62-18.157-4.647-18.157zm38.474-.216h7.08v36.583h-7.35V92.836l-9.294 32.044h-.703l-9.564-31.288v30.747h-1.08V90.566l-.866-2.81h7.89l7.025 23.776zm17.617-.757-2.648 11.618h-.973L231.015 87h6.215zm19.183 1.838-.433.864c-1.837-.864-3.512-1.35-5.781-1.297-2.54 0-4.377 1.568-4.377 4.27 0 3.08 1.35 5.511 5.62 9.996 4.863 5.134 6.538 7.674 6.538 12.105-.054 5.998-3.62 10.05-10.862 10.05-2.215 0-5.187-.648-7.187-1.837l.487-.864c2.323 1.297 4.323 1.675 6.754 1.729 3.189 0 4.972-1.189 4.972-4.107 0-3.404-1.567-6.052-5.566-10.105-4.431-4.431-6.647-7.835-6.647-12.699 0-5.728 4.161-9.51 10.16-9.51 2.269 0 4.376.432 6.322 1.405zm27.883 15.887c6.376.432 9.078 3.728 9.078 9.024 0 6.755-3.62 10.591-9.564 10.591h-11.402V87.756h11.131c5.404 0 8.484 2.864 8.484 8.43 0 4.269-2.215 7.511-7.727 8.538zm-4.54-15.995v15.67h.974c2.323 0 3.944-3.458 3.944-8.537 0-4.431-1.08-7.133-3.674-7.133h-1.243zm1.514 34.638c2.918 0 4.431-3.945 4.431-9.187 0-5.404-1.675-8.808-4.863-8.808h-1.081v17.995h1.513zm28.748.972-2.54-11.834h-8.214l-2.54 11.834h-1.134l7.24-33.773-.594-2.81h7.457l7.836 36.583h-7.511zm-10.592-12.807h7.89l-3.945-18.426zm39.934-23.776h1.08v36.583h-7.565l-10.429-30.207v30.207h-1.08v-32.8l-1.297-3.783h7.51l11.78 33.449V87.756zm7.187 36.583V87.756h7.349v36.583h-7.35zm13.78-24.263 9.672 24.263h-8.538l-6.214-17.562 11.131-19.021h1.135z" fill="#111"/>
</svg>
